<svg xmlns="http://www.w3.org/2000/svg" id="Calque_1" viewBox="0 0 392 359"><style>.st1{fill:#f2f2f2}.st2{fill:gray}.st3{fill:#ccc}.st4{fill:#fff}.st5{fill:none;stroke:#ffb734;stroke-miterlimit:10}.st6{fill:#ffb734}.st7{fill:none}.st8{font-family:&apos;SourceSansPro-Light&apos;}.st9{font-size:21px}.st10{font-family:&apos;SourceSansPro-Regular&apos;}.st11{font-size:20px}.st13{font-family:&apos;SourceCodePro-Medium&apos;}.st14{font-size:18px}</style><path d="M0 0h392.5v32.5H0z" class="st2"/><path d="M106 67.8h95V132h-95z" class="st1"/><path d="M106 67.8h95v31.7h-95z" class="st3"/><path d="M83 76h142v15.4H83z" class="st7"/><text class="st8 st9" transform="translate(117.765 91.062)">Addition</text><path d="M0 179.8h90V245H0z" class="st1"/><path d="M0 222.2h90v23.3H0z" class="st7"/><text class="st10 st11" transform="translate(40.03 236.395)">1</text><path d="M0 179.8h90v31.7H0z" class="st3"/><path d="M0 189h90v19H0z" class="st7"/><text class="st8 st9" transform="translate(9.269 204.061)">Rational</text><path d="M0 9h392v19H0z" class="st7"/><text class="st4 st13 st14" transform="translate(147.4 21.725)">1 + 2 × 3</text><path d="M126 294.8h90V360h-90z" class="st1"/><path d="M126 336.2h90v23.3h-90z" class="st7"/><text class="st10 st11" transform="translate(166.03 350.396)">2</text><path d="M126 294.8h90v31.7h-90z" class="st3"/><path d="M126 304h90v19h-90z" class="st7"/><text class="st8 st9" transform="translate(135.269 319.061)">Rational</text><path d="M302 294.8h90V360h-90z" class="st1"/><path d="M302 336.2h90v23.3h-90z" class="st7"/><text class="st10 st11" transform="translate(342.03 350.396)">3</text><path d="M302 294.8h90v31.7h-90z" class="st3"/><path d="M302 304h90v19h-90z" class="st7"/><text class="st8 st9" transform="translate(311.269 319.061)">Rational</text><path d="M188 179.8h140.4V245H188z" class="st1"/><path d="M188 179.8h140.4v31.7H188z" class="st3"/><path d="M188 188h140v19.3H188z" class="st7"/><text class="st8 st9" transform="translate(199.422 203.061)">Multiplication</text><path d="M167.5 112.5l78.1 57.4" class="st5"/><path d="M240.5 171.2l-.1-1 4.9-.6-.9-4.8 1-.2 1.1 5.9z" class="st6"/><path d="M278.5 228.5l77 57.7" class="st5"/><path d="M350.4 287.4l-.1-1 4.9-.5-.9-4.8 1-.2 1 5.9z" class="st6"/><g><path d="M136.5 112.5l-76.8 57.4" class="st5"/><path d="M59.9 164.6l1 .2-.9 4.8 4.9.5-.1 1-6-.6z" class="st6"/></g><g><path d="M239.5 228.5l-76.8 57.7" class="st5"/><path d="M162.9 280.9l1 .2-.9 4.8 4.9.5-.1 1-6-.6z" class="st6"/></g></svg>