<svg xmlns="http://www.w3.org/2000/svg" id="Calque_1" viewBox="0 0 808 179"><style>.st1{fill:#f2f2f2}.st3{fill:#ccc}.st6{fill:#ffb734}.st7{stroke:#ffb734;stroke-linecap:round;stroke-linejoin:round}.st7,.st8{fill:none}.st9{font-family:&apos;SourceSansPro-Light&apos;}.st10{font-size:21px}.st11{font-family:&apos;SourceSansPro-Regular&apos;}.st12{font-size:20px}.st13{fill:none;stroke:gray;stroke-width:3;stroke-miterlimit:10}</style><path d="M101 .8h117V66H101z" class="st1"/><path d="M101 .8h117v31.7H101z" class="st3"/><path d="M99 10h121v19H99z" class="st8"/><text class="st9 st10" transform="translate(123.265 25.061)">Addition</text><path d="M0 112.8h90V178H0z" class="st1"/><path d="M0 155.2h90v23.3H0z" class="st8"/><text class="st11 st12" transform="translate(40.03 169.395)">3</text><path d="M0 112.8h90v31.7H0z" class="st3"/><path d="M0 122h90v19H0z" class="st8"/><text class="st9 st10" transform="translate(9.269 137.061)">Rational</text><path d="M224 112.8h90V178h-90z" class="st1"/><path d="M224 154.2h90v23.3h-90z" class="st8"/><text class="st11 st12" transform="translate(263.39 168.395)">π</text><path d="M224 112.8h90v31.7h-90z" class="st3"/><path d="M224 122h90v19h-90z" class="st8"/><text class="st9 st10" transform="translate(236.608 137.061)">Symbol</text><path d="M181.5 49.5l74 54.7" class="st7"/><path d="M250.4 105.5l-.1-1 4.9-.6-1-4.8 1-.2 1.1 5.9z" class="st6"/><path d="M139.5 49.5l-72.8 54.7" class="st7"/><path d="M66.9 98.9l1 .2-.9 4.8 4.9.5-.1 1-6-.6z" class="st6"/><path d="M595 .8h117V66H595z" class="st1"/><path d="M595 .8h117v31.7H595z" class="st3"/><path d="M593 10h121v19H593z" class="st8"/><text class="st9 st10" transform="translate(617.265 25.061)">Addition</text><path d="M494 112.8h90V178h-90z" class="st1"/><path d="M494 155.2h90v23.3h-90z" class="st8"/><text class="st11 st12" transform="translate(534.03 169.395)">2</text><path d="M494 112.8h90v31.7h-90z" class="st3"/><path d="M478 122h121v19H478z" class="st8"/><text class="st9 st10" transform="translate(502.77 137.061)">Rational</text><path d="M718 112.8h90V178h-90z" class="st1"/><path d="M718 154.2h90v23.3h-90z" class="st8"/><text class="st11 st12" transform="translate(757.39 168.395)">π</text><path d="M718 112.8h90v31.7h-90z" class="st3"/><path d="M702 122h121v19H702z" class="st8"/><text class="st9 st10" transform="translate(730.108 137.061)">Symbol</text><path d="M675.5 49.5l74 54.7" class="st7"/><path d="M744.4 105.5l-.1-1 4.9-.6-1-4.8 1-.2 1.1 5.9z" class="st6"/><g><path d="M633.5 49.5l-72.8 54.7" class="st7"/><path d="M560.9 98.9l1 .2-.9 4.8 4.9.5-.1 1-6-.6z" class="st6"/></g><path d="M386 56.5l35.5 31.4-35.1 33.6" class="st13"/></svg>