<svg xmlns="http://www.w3.org/2000/svg" id="Calque_1" viewBox="0 0 961 480"><style>.st1{fill:#f2f2f2}.st2{fill:gray}.st3{fill:#ccc}.st4{fill:#fff}.st5{fill:none;stroke:#ffb734;stroke-miterlimit:10}.st6{fill:#ffb734}.st8{stroke:gray;stroke-width:3;stroke-miterlimit:10}.st8,.st9{fill:none}.st10{font-family:&apos;SourceSansPro-Light&apos;}.st11{font-size:21px}.st12{font-family:&apos;SourceCodePro-Medium&apos;}.st13{font-size:18px}.st14{font-family:&apos;SourceSansPro-Regular&apos;}.st15{font-size:20px}</style><path d="M0 0h392.5v33.5H0z" class="st2"/><path d="M189 69.8h95V134h-95z" class="st1"/><path d="M189 69.8h95v31.7h-95z" class="st3"/><path d="M166 78h142v15.4H166z" class="st9"/><text class="st10 st11" transform="translate(200.765 93.062)">Addition</text><path d="M72 181.8h117V247H72z" class="st1"/><path d="M72 181.8h117v31.7H72z" class="st3"/><path d="M70 191h121v19H70z" class="st9"/><text class="st10 st11" transform="translate(80.322 206.061)">Subtraction</text><path d="M0 11h392v19H0z" class="st9"/><text class="st4 st12 st13" transform="translate(152.8 23.725)">1 - 2π+π</text><path d="M302 181.8h90V247h-90z" class="st1"/><path d="M302 223.2h89v23.3h-89z" class="st9"/><text class="st14 st15" transform="translate(340.89 237.395)">π</text><path d="M302 181.8h90v31.7h-90z" class="st3"/><path d="M286 191h121v19H286z" class="st9"/><text class="st10 st11" transform="translate(314.108 206.061)">Symbol</text><path d="M302 414.8h90V480h-90z" class="st1"/><path d="M302 456.2h89v23.3h-89z" class="st9"/><text class="st14 st15" transform="translate(340.89 470.395)">π</text><path d="M302 414.8h90v31.7h-90z" class="st3"/><path d="M286 424h121v19H286z" class="st9"/><text class="st10 st11" transform="translate(314.108 439.061)">Symbol</text><path d="M256.5 117.5l74 54.7" class="st5"/><path d="M325.4 173.5l-.1-1 4.9-.6-1-4.8 1-.2 1.1 5.9z" class="st6"/><path d="M150.5 229.5l78 57.7" class="st5"/><path d="M223.4 288.5l-.1-1 4.9-.6-1-4.8 1-.2 1.1 5.9z" class="st6"/><path d="M211.5 117.5l-69.8 52.7" class="st5"/><path d="M141.9 164.9l1 .2-.9 4.8 4.9.5-.1 1-6-.6z" class="st6"/><path d="M110.5 229.5l-77.8 58.7" class="st5"/><path d="M32.9 282.9l1 .2-.9 4.8 4.9.5-.1 1-6-.6z" class="st6"/><path d="M0 296.8h90V362H0z" class="st1"/><path d="M0 339.2h90v23.3H0z" class="st9"/><text class="st14 st15" transform="translate(40.03 353.396)">1</text><path d="M0 296.8h90v31.7H0z" class="st3"/><path d="M-16 306h121v19H-16z" class="st9"/><text class="st10 st11" transform="translate(8.77 321.061)">Rational</text><path d="M86 414.8h90V480H86z" class="st1"/><path d="M86 457.2h90v23.3H86z" class="st9"/><text class="st14 st15" transform="translate(126.03 471.396)">2</text><path d="M86 414.8h90v31.7H86z" class="st3"/><path d="M70 424h121v19H70z" class="st9"/><text class="st10 st11" transform="translate(94.77 439.061)">Rational</text><path d="M167 296.8h140.4V362H167z" class="st1"/><path d="M167 296.8h140.4v31.7H167z" class="st3"/><path d="M167 305h140v19.3H167z" class="st9"/><text class="st10 st11" transform="translate(178.422 320.061)">Multiplication</text><path d="M747 182.8h140.4V248H747z" class="st1"/><path d="M747 182.8h140.4v31.7H747z" class="st3"/><path d="M747 191h140v19.3H747z" class="st9"/><text class="st10 st11" transform="translate(758.422 206.061)">Multiplication</text><path d="M258.5 345.5l78 57.7" class="st5"/><path d="M331.4 404.5l-.1-1 4.9-.6-1-4.8 1-.2 1.1 5.9z" class="st6"/><path d="M214.5 345.5l-77.8 58.7" class="st5"/><path d="M136.9 398.9l1 .2-.9 4.8 4.9.5-.1 1-6-.6z" class="st6"/><path d="M559 0h402v33.5H559z" class="st2"/><path d="M663 69.8h95V134h-95z" class="st1"/><path d="M663 69.8h95v31.7h-95z" class="st3"/><path d="M640 78h142v15.4H640z" class="st9"/><text class="st10 st11" transform="translate(674.765 93.062)">Addition</text><path d="M560 181.8h90V247h-90z" class="st1"/><path d="M559 224.2h92v23.3h-92z" class="st9"/><text class="st14 st15" transform="translate(600.03 238.395)">1</text><path d="M560 181.8h90v31.7h-90z" class="st3"/><path d="M544 191h121v19H544z" class="st9"/><text class="st10 st11" transform="translate(568.77 206.061)">Rational</text><path d="M665 295.8h90V361h-90z" class="st1"/><path d="M665 338.2h90v23.3h-90z" class="st9"/><text class="st14 st15" transform="translate(701.92 352.396)">-1</text><path d="M665 295.8h90v31.7h-90z" class="st3"/><path d="M649 305h121v19H649z" class="st9"/><text class="st10 st11" transform="translate(673.77 320.061)">Rational</text><path d="M560 11h401v19H560z" class="st9"/><text class="st4 st12 st13" transform="translate(695.701 23.725)">1 + (-1) × π</text><path d="M872 296.8h90V362h-90z" class="st1"/><path d="M872 338.2h89v23.3h-89z" class="st9"/><text class="st14 st15" transform="translate(910.89 352.395)">π</text><path d="M872 296.8h90v31.7h-90z" class="st3"/><path d="M856 306h121v19H856z" class="st9"/><text class="st10 st11" transform="translate(884.108 321.061)">Symbol</text><g><path d="M729.5 119.5l74 54.7" class="st5"/><path d="M798.4 175.5l-.1-1 4.9-.6-1-4.8 1-.2 1.1 5.9z" class="st6"/></g><g><path d="M835.5 229.5l78 57.7" class="st5"/><path d="M908.4 288.5l-.1-1 4.9-.6-1-4.8 1-.2 1.1 5.9z" class="st6"/></g><g><path d="M684.5 119.5l-69.8 52.7" class="st5"/><path d="M614.9 166.9l1 .2-.9 4.8 4.9.5-.1 1-6-.6z" class="st6"/></g><g><path d="M795.5 229.5l-77.8 58.7" class="st5"/><path d="M717.9 282.9l1 .2-.9 4.8 4.9.5-.1 1-6-.6z" class="st6"/></g><g><path d="M414 17.5h119.6" class="st8"/><path d="M527.6 22.6l5.1-5.1-5.1-5.1h4.3l5.1 5.1-5.1 5.1z" class="st2"/></g></svg>