<svg xmlns="http://www.w3.org/2000/svg" id="Calque_1" viewBox="0 0 948 480"><style>.st1{fill:#f2f2f2}.st2{fill:gray}.st3{fill:#ccc}.st4{fill:none}.st5{font-family:&apos;SourceSansPro-Light&apos;}.st6{font-size:21px}.st7{fill:#fff}.st8{font-family:&apos;SourceCodePro-Medium&apos;}.st9{font-size:18px}.st10{font-family:&apos;SourceSansPro-Regular&apos;}.st11{font-size:20px}.st12{fill:none;stroke:#ffb734;stroke-miterlimit:10}.st13{fill:#ffb734}.st14{fill:none;stroke:#ffb734;stroke-linecap:round;stroke-linejoin:round}.st15{fill:none;stroke:gray;stroke-width:3;stroke-miterlimit:10}</style><path d="M0 1h392.5v32.5H0z" class="st2"/><path d="M189 69.8h95V134h-95z" class="st1"/><path d="M189 69.8h95v31.7h-95z" class="st3"/><path d="M166 78h142v15.4H166z" class="st4"/><text class="st5 st6" transform="translate(200.765 93.062)">Addition</text><path d="M72 181.8h117V247H72z" class="st1"/><path d="M72 181.8h117v31.7H72z" class="st3"/><path d="M70 191h121v19H70z" class="st4"/><text class="st5 st6" transform="translate(80.322 206.061)">Subtraction</text><path d="M697 69.8h117V135H697z" class="st1"/><path d="M697 69.8h117v31.7H697z" class="st3"/><path d="M697 79h117v19H697z" class="st4"/><text class="st5 st6" transform="translate(705.321 94.061)">Subtraction</text><path d="M0 10h392v19H0z" class="st4"/><text class="st7 st8 st9" transform="translate(142 22.725)">1 - 2π + π</text><path d="M302 181.8h90V247h-90z" class="st1"/><path d="M302 223.2h89v23.3h-89z" class="st4"/><text class="st10 st11" transform="translate(340.89 237.395)">π</text><path d="M302 181.8h90v31.7h-90z" class="st3"/><path d="M286 191h121v19H286z" class="st4"/><text class="st5 st6" transform="translate(314.108 206.061)">Symbol</text><path d="M302 414.8h90V480h-90z" class="st1"/><path d="M302 456.2h89v23.3h-89z" class="st4"/><text class="st10 st11" transform="translate(340.89 470.395)">π</text><path d="M302 414.8h90v31.7h-90z" class="st3"/><path d="M286 424h121v19H286z" class="st4"/><text class="st5 st6" transform="translate(314.108 439.061)">Symbol</text><path d="M256.5 117.5l74 54.7" class="st12"/><path d="M325.4 173.5l-.1-1 4.9-.6-1-4.8 1-.2 1.1 5.9z" class="st13"/><path d="M150.5 229.5l78 57.7" class="st12"/><path d="M223.4 288.5l-.1-1 4.9-.6-1-4.8 1-.2 1.1 5.9z" class="st13"/><path d="M211.5 117.5l-69.8 52.7" class="st12"/><path d="M141.9 164.9l1 .2-.9 4.8 4.9.5-.1 1-6-.6z" class="st13"/><path d="M110.5 229.5l-77.8 58.7" class="st12"/><path d="M32.9 282.9l1 .2-.9 4.8 4.9.5-.1 1-6-.6z" class="st13"/><path d="M556 1h392.5v32.5H556z" class="st2"/><path d="M556 180.8h90V246h-90z" class="st1"/><path d="M556 223.2h90v23.3h-90z" class="st4"/><text class="st10 st11" transform="translate(596.03 237.395)">1</text><path d="M556 180.8h90v31.7h-90z" class="st3"/><path d="M556 190h90v19h-90z" class="st4"/><text class="st5 st6" transform="translate(565.269 205.061)">Rational</text><path d="M0 296.8h90V362H0z" class="st1"/><path d="M0 339.2h90v23.3H0z" class="st4"/><text class="st10 st11" transform="translate(40.03 353.396)">1</text><path d="M0 296.8h90v31.7H0z" class="st3"/><path d="M-16 306h121v19H-16z" class="st4"/><text class="st5 st6" transform="translate(8.77 321.061)">Rational</text><path d="M86 414.8h90V480H86z" class="st1"/><path d="M86 457.2h90v23.3H86z" class="st4"/><text class="st10 st11" transform="translate(126.03 471.396)">2</text><path d="M86 414.8h90v31.7H86z" class="st3"/><path d="M70 424h121v19H70z" class="st4"/><text class="st5 st6" transform="translate(94.77 439.061)">Rational</text><path d="M554 11h394v19H554z" class="st4"/><text class="st7 st8 st9" transform="translate(724 23.762)">1 - π</text><path d="M858 181.8h90V247h-90z" class="st1"/><path d="M858 223.2h90v23.3h-90z" class="st4"/><text class="st10 st11" transform="translate(897.39 237.395)">π</text><path d="M858 181.8h90v31.7h-90z" class="st3"/><path d="M858 191h90v19h-90z" class="st4"/><text class="st5 st6" transform="translate(870.608 206.061)">Symbol</text><path d="M788.5 119.5l74 54.7" class="st14"/><path d="M857.4 175.5l-.1-1 4.9-.6-1-4.8 1-.2 1.1 5.9z" class="st13"/><path d="M719.5 118.5l-72.8 54.7" class="st14"/><path d="M646.9 167.9l1 .2-.9 4.8 4.9.5-.1 1-6-.6z" class="st13"/><path d="M412 16.5h119.6" class="st15"/><path d="M525.6 21.6l5.1-5.1-5.1-5.1h4.3l5.1 5.1-5.1 5.1z" class="st2"/><g><path d="M167 296.8h140.4V362H167z" class="st1"/></g><path d="M167 296.8h140.4v31.7H167z" class="st3"/><path d="M167 305h140v19.3H167z" class="st4"/><text class="st5 st6" transform="translate(178.422 320.061)">Multiplication</text><g><path d="M258.5 345.5l78 57.7" class="st12"/><path d="M331.4 404.5l-.1-1 4.9-.6-1-4.8 1-.2 1.1 5.9z" class="st13"/></g><g><path d="M214.5 345.5l-77.8 58.7" class="st12"/><path d="M136.9 398.9l1 .2-.9 4.8 4.9.5-.1 1-6-.6z" class="st13"/></g></svg>